<svg xmlns="http://www.w3.org/2000/svg" width="256" height="256" viewBox="0 0 256 256">
  <!-- Field -->
  <defs>
    <linearGradient id="g" x1="0" y1="0" x2="1" y2="1">
      <stop offset="0" stop-color="#31d67b"/>
      <stop offset="1" stop-color="#27c56e"/>
    </linearGradient>
  </defs>
  <rect width="256" height="256" rx="56" fill="url(#g)"/>

  <!-- Yard (fence) -->
  <g transform="translate(148,148)">
    <rect x="0" y="0" width="72" height="72" rx="10" fill="#f1c40f" stroke="#d4ac0d" stroke-width="4"/>
    <!-- fence slats -->
    <g opacity="0.6">
      <rect x="10" y="10" width="5" height="52" rx="2.5" fill="#d4ac0d"/>
      <rect x="24" y="10" width="5" height="52" rx="2.5" fill="#d4ac0d"/>
      <rect x="38" y="10" width="5" height="52" rx="2.5" fill="#d4ac0d"/>
      <rect x="52" y="10" width="5" height="52" rx="2.5" fill="#d4ac0d"/>
    </g>
  </g>

  <!-- Hero -->
  <g transform="translate(76,104)">
    <circle cx="0" cy="0" r="28" fill="#e74c3c" stroke="#c0392b" stroke-width="4"/>
    <circle cx="-10" cy="-10" r="9" fill="#ffffff" opacity="0.25"/>
  </g>

  <!-- Animals (curved tail) -->
  <g fill="#ffffff" stroke="#bdc3c7" stroke-width="3">
    <circle cx="116" cy="128" r="18"/>
    <circle cx="142" cy="142" r="16"/>
    <circle cx="166" cy="156" r="14"/>
  </g>

  <!-- Motion path -->
  <path d="M76,104 C110,122 140,138 182,168" fill="none" stroke="#ffffff" stroke-width="3" stroke-linecap="round" opacity="0.25"/>

  <!-- Shadows -->
  <g opacity="0.15" fill="#000000">
    <ellipse cx="76" cy="128" rx="24" ry="8"/>
    <ellipse cx="116" cy="140" rx="16" ry="6"/>
    <ellipse cx="142" cy="154" rx="14" ry="5"/>
    <ellipse cx="166" cy="168" rx="12" ry="4"/>
  </g>
</svg>
